<svg width="195" height="54" viewBox="0 0 195 54" fill="none" xmlns="http://www.w3.org/2000/svg">
<rect y="0.589081" width="195" height="52.4206" rx="6" fill="#F9F1E4"/>
<g filter="url(#filter0_d)">
<path d="M60.368 33.1391V20.8811C60.368 20.7371 60.422 20.6291 60.53 20.5571C60.638 20.4731 60.764 20.4311 60.908 20.4311H63.86C64.412 20.4311 64.892 20.4731 65.3 20.5571C65.708 20.6411 66.086 20.7911 66.434 21.0071C66.794 21.2231 67.064 21.5411 67.244 21.9611C67.436 22.3691 67.532 22.8791 67.532 23.4911C67.532 24.2351 67.394 24.8651 67.118 25.3811C66.842 25.8971 66.47 26.2571 66.002 26.4611C66.602 26.7011 67.058 27.0611 67.37 27.5411C67.694 28.0211 67.856 28.6931 67.856 29.5571V29.8811C67.856 31.1771 67.532 32.1191 66.884 32.7071C66.236 33.2951 65.372 33.5891 64.292 33.5891H60.908C60.74 33.5891 60.608 33.5471 60.512 33.4631C60.416 33.3671 60.368 33.2591 60.368 33.1391ZM61.538 32.4911H64.148C65.828 32.4911 66.668 31.6031 66.668 29.8271V29.5211C66.668 27.8171 65.828 26.9651 64.148 26.9651H61.538V32.4911ZM61.538 25.9391H63.896C64.748 25.9391 65.366 25.7651 65.75 25.4171C66.146 25.0571 66.344 24.4571 66.344 23.6171C66.344 22.8371 66.128 22.2971 65.696 21.9971C65.264 21.6851 64.64 21.5291 63.824 21.5291H61.538V25.9391ZM69.9095 29.8451V24.2651C69.9095 22.9451 70.2455 21.9791 70.9175 21.3671C71.6015 20.7431 72.5135 20.4311 73.6535 20.4311C74.7935 20.4311 75.6995 20.7431 76.3715 21.3671C77.0555 21.9791 77.3975 22.9451 77.3975 24.2651V29.8451C77.3975 31.1771 77.0555 32.1551 76.3715 32.7791C75.6995 33.3911 74.7935 33.6971 73.6535 33.6971C72.5135 33.6971 71.6015 33.3911 70.9175 32.7791C70.2455 32.1551 69.9095 31.1771 69.9095 29.8451ZM71.0975 29.8451C71.0975 31.6811 71.9495 32.5991 73.6535 32.5991C75.3575 32.5991 76.2095 31.6811 76.2095 29.8451V24.2651C76.2095 22.4411 75.3575 21.5291 73.6535 21.5291C71.9495 21.5291 71.0975 22.4411 71.0975 24.2651V29.8451ZM79.8412 29.8451V24.2651C79.8412 22.9451 80.1772 21.9791 80.8492 21.3671C81.5332 20.7431 82.4452 20.4311 83.5852 20.4311C84.7252 20.4311 85.6312 20.7431 86.3032 21.3671C86.9872 21.9791 87.3292 22.9451 87.3292 24.2651V29.8451C87.3292 31.1771 86.9872 32.1551 86.3032 32.7791C85.6312 33.3911 84.7252 33.6971 83.5852 33.6971C82.4452 33.6971 81.5332 33.3911 80.8492 32.7791C80.1772 32.1551 79.8412 31.1771 79.8412 29.8451ZM81.0292 29.8451C81.0292 31.6811 81.8812 32.5991 83.5852 32.5991C85.2892 32.5991 86.1412 31.6811 86.1412 29.8451V24.2651C86.1412 22.4411 85.2892 21.5291 83.5852 21.5291C81.8812 21.5291 81.0292 22.4411 81.0292 24.2651V29.8451ZM89.9168 33.1211V20.8631C89.9168 20.5751 90.1148 20.4311 90.5108 20.4311C90.9068 20.4311 91.1048 20.5751 91.1048 20.8631V27.2351L96.3068 20.6111C96.3908 20.4911 96.5168 20.4311 96.6848 20.4311C96.8288 20.4311 96.9728 20.4971 97.1168 20.6291C97.2608 20.7611 97.3328 20.8991 97.3328 21.0431C97.3328 21.1511 97.3028 21.2411 97.2428 21.3131L93.3728 26.1191L97.8008 32.7791C97.8488 32.8751 97.8728 32.9531 97.8728 33.0131C97.8728 33.1691 97.8008 33.3131 97.6568 33.4451C97.5128 33.5651 97.3568 33.6251 97.1888 33.6251C97.0208 33.6251 96.8708 33.5351 96.7388 33.3551L92.5808 27.1091L91.1048 28.9811V33.1211C91.1048 33.2651 91.0448 33.3791 90.9248 33.4631C90.8048 33.5471 90.6668 33.5891 90.5108 33.5891C90.3428 33.5891 90.1988 33.5471 90.0788 33.4631C89.9708 33.3791 89.9168 33.2651 89.9168 33.1211ZM102.925 33.1211V20.8811C102.925 20.5811 103.123 20.4311 103.519 20.4311C103.855 20.4311 104.167 20.7071 104.455 21.2591L109.315 30.8351V20.8631C109.315 20.5751 109.513 20.4311 109.909 20.4311C110.305 20.4311 110.503 20.5751 110.503 20.8631V33.1211C110.503 33.2651 110.443 33.3791 110.323 33.4631C110.203 33.5471 110.065 33.5891 109.909 33.5891C109.609 33.5891 109.345 33.3611 109.117 32.9051L104.113 23.1671V33.1211C104.113 33.2651 104.053 33.3791 103.933 33.4631C103.813 33.5471 103.675 33.5891 103.519 33.5891C103.351 33.5891 103.207 33.5471 103.087 33.4631C102.979 33.3791 102.925 33.2651 102.925 33.1211ZM113.099 29.8451V24.2651C113.099 22.9451 113.435 21.9791 114.107 21.3671C114.791 20.7431 115.703 20.4311 116.843 20.4311C117.983 20.4311 118.889 20.7431 119.561 21.3671C120.245 21.9791 120.587 22.9451 120.587 24.2651V29.8451C120.587 31.1771 120.245 32.1551 119.561 32.7791C118.889 33.3911 117.983 33.6971 116.843 33.6971C115.703 33.6971 114.791 33.3911 114.107 32.7791C113.435 32.1551 113.099 31.1771 113.099 29.8451ZM114.287 29.8451C114.287 31.6811 115.139 32.5991 116.843 32.5991C118.547 32.5991 119.399 31.6811 119.399 29.8451V24.2651C119.399 22.4411 118.547 21.5291 116.843 21.5291C115.139 21.5291 114.287 22.4411 114.287 24.2651V29.8451ZM122.203 20.9171C122.203 20.7851 122.275 20.6711 122.419 20.5751C122.563 20.4791 122.719 20.4311 122.887 20.4311C123.139 20.4311 123.295 20.5331 123.355 20.7371L126.469 31.7891L128.269 25.0751C128.329 24.7991 128.539 24.6611 128.899 24.6611C129.223 24.6611 129.427 24.7991 129.511 25.0751L131.311 31.7891L134.425 20.7371C134.485 20.5331 134.641 20.4311 134.893 20.4311C135.061 20.4311 135.217 20.4791 135.361 20.5751C135.505 20.6711 135.577 20.7851 135.577 20.9171C135.577 20.9771 135.571 21.0251 135.559 21.0611L132.031 33.2651C131.935 33.5531 131.695 33.6971 131.311 33.6971C130.915 33.6971 130.681 33.5531 130.609 33.2651L128.899 26.9111L127.189 33.2651C127.117 33.5531 126.883 33.6971 126.487 33.6971C126.091 33.6971 125.851 33.5531 125.767 33.2651L122.221 21.0611C122.209 21.0251 122.203 20.9771 122.203 20.9171Z" fill="black"/>
</g>
<rect x="1" y="1.58908" width="193" height="50.4206" rx="5" stroke="black" stroke-opacity="0.2" stroke-width="2"/>
<defs>
<filter id="filter0_d" x="56.368" y="20.4311" width="83.2086" height="21.266" filterUnits="userSpaceOnUse" color-interpolation-filters="sRGB">
<feFlood flood-opacity="0" result="BackgroundImageFix"/>
<feColorMatrix in="SourceAlpha" type="matrix" values="0 0 0 0 0 0 0 0 0 0 0 0 0 0 0 0 0 0 127 0"/>
<feOffset dy="4"/>
<feGaussianBlur stdDeviation="2"/>
<feColorMatrix type="matrix" values="0 0 0 0 0 0 0 0 0 0 0 0 0 0 0 0 0 0 0.25 0"/>
<feBlend mode="normal" in2="BackgroundImageFix" result="effect1_dropShadow"/>
<feBlend mode="normal" in="SourceGraphic" in2="effect1_dropShadow" result="shape"/>
</filter>
</defs>
</svg>
