<svg width="242" height="100" viewBox="0 0 242 100" fill="none" xmlns="http://www.w3.org/2000/svg">
<g filter="url(#filter0_b)">
<path d="M43 27C43 25.8954 43.8954 25 45 25H240C241.105 25 242 25.8954 242 27V73C242 74.1046 241.105 75 240 75H45C43.8954 75 43 74.1046 43 73V27Z" fill="white"/>
<path d="M88.424 49.8V45.792H91.952C92.288 45.792 92.608 45.824 92.912 45.888C93.232 45.936 93.512 46.032 93.752 46.176C93.992 46.32 94.184 46.52 94.328 46.776C94.472 47.032 94.544 47.36 94.544 47.76C94.544 48.48 94.328 49 93.896 49.32C93.464 49.64 92.912 49.8 92.24 49.8H88.424ZM84.656 42.864V60H92.96C93.728 60 94.472 59.904 95.192 59.712C95.928 59.52 96.576 59.224 97.136 58.824C97.712 58.424 98.168 57.912 98.504 57.288C98.84 56.648 99.008 55.896 99.008 55.032C99.008 53.96 98.744 53.048 98.216 52.296C97.704 51.528 96.92 50.992 95.864 50.688C96.632 50.32 97.208 49.848 97.592 49.272C97.992 48.696 98.192 47.976 98.192 47.112C98.192 46.312 98.056 45.64 97.784 45.096C97.528 44.552 97.16 44.12 96.68 43.8C96.2 43.464 95.624 43.224 94.952 43.08C94.28 42.936 93.536 42.864 92.72 42.864H84.656ZM88.424 57.072V52.368H92.528C93.344 52.368 94 52.56 94.496 52.944C94.992 53.312 95.24 53.936 95.24 54.816C95.24 55.264 95.16 55.632 95 55.92C94.856 56.208 94.656 56.44 94.4 56.616C94.144 56.776 93.848 56.896 93.512 56.976C93.176 57.04 92.824 57.072 92.456 57.072H88.424ZM104.218 53.808C104.218 53.312 104.266 52.824 104.362 52.344C104.458 51.864 104.618 51.44 104.842 51.072C105.082 50.704 105.394 50.408 105.778 50.184C106.162 49.944 106.642 49.824 107.218 49.824C107.794 49.824 108.274 49.944 108.658 50.184C109.058 50.408 109.37 50.704 109.594 51.072C109.834 51.44 110.002 51.864 110.098 52.344C110.194 52.824 110.242 53.312 110.242 53.808C110.242 54.304 110.194 54.792 110.098 55.272C110.002 55.736 109.834 56.16 109.594 56.544C109.37 56.912 109.058 57.208 108.658 57.432C108.274 57.656 107.794 57.768 107.218 57.768C106.642 57.768 106.162 57.656 105.778 57.432C105.394 57.208 105.082 56.912 104.842 56.544C104.618 56.16 104.458 55.736 104.362 55.272C104.266 54.792 104.218 54.304 104.218 53.808ZM100.81 53.808C100.81 54.8 100.962 55.696 101.266 56.496C101.57 57.296 102.002 57.984 102.562 58.56C103.122 59.12 103.794 59.552 104.578 59.856C105.362 60.16 106.242 60.312 107.218 60.312C108.194 60.312 109.074 60.16 109.858 59.856C110.658 59.552 111.338 59.12 111.898 58.56C112.458 57.984 112.89 57.296 113.194 56.496C113.498 55.696 113.65 54.8 113.65 53.808C113.65 52.816 113.498 51.92 113.194 51.12C112.89 50.304 112.458 49.616 111.898 49.056C111.338 48.48 110.658 48.04 109.858 47.736C109.074 47.416 108.194 47.256 107.218 47.256C106.242 47.256 105.362 47.416 104.578 47.736C103.794 48.04 103.122 48.48 102.562 49.056C102.002 49.616 101.57 50.304 101.266 51.12C100.962 51.92 100.81 52.816 100.81 53.808ZM118.89 53.808C118.89 53.312 118.938 52.824 119.034 52.344C119.13 51.864 119.29 51.44 119.514 51.072C119.754 50.704 120.066 50.408 120.45 50.184C120.834 49.944 121.314 49.824 121.89 49.824C122.466 49.824 122.946 49.944 123.33 50.184C123.73 50.408 124.042 50.704 124.266 51.072C124.506 51.44 124.674 51.864 124.77 52.344C124.866 52.824 124.914 53.312 124.914 53.808C124.914 54.304 124.866 54.792 124.77 55.272C124.674 55.736 124.506 56.16 124.266 56.544C124.042 56.912 123.73 57.208 123.33 57.432C122.946 57.656 122.466 57.768 121.89 57.768C121.314 57.768 120.834 57.656 120.45 57.432C120.066 57.208 119.754 56.912 119.514 56.544C119.29 56.16 119.13 55.736 119.034 55.272C118.938 54.792 118.89 54.304 118.89 53.808ZM115.482 53.808C115.482 54.8 115.634 55.696 115.938 56.496C116.242 57.296 116.674 57.984 117.234 58.56C117.794 59.12 118.466 59.552 119.25 59.856C120.034 60.16 120.914 60.312 121.89 60.312C122.866 60.312 123.746 60.16 124.53 59.856C125.33 59.552 126.01 59.12 126.57 58.56C127.13 57.984 127.562 57.296 127.866 56.496C128.17 55.696 128.322 54.8 128.322 53.808C128.322 52.816 128.17 51.92 127.866 51.12C127.562 50.304 127.13 49.616 126.57 49.056C126.01 48.48 125.33 48.04 124.53 47.736C123.746 47.416 122.866 47.256 121.89 47.256C120.914 47.256 120.034 47.416 119.25 47.736C118.466 48.04 117.794 48.48 117.234 49.056C116.674 49.616 116.242 50.304 115.938 51.12C115.634 51.92 115.482 52.816 115.482 53.808ZM130.85 42.864V60H134.258V55.728L135.578 54.456L138.986 60H143.114L137.906 52.152L142.586 47.592H138.554L134.258 52.056V42.864H130.85ZM151.359 42.864V60H154.887V48.528H154.935L162.063 60H165.831V42.864H162.303V54.36H162.255L155.103 42.864H151.359ZM171.812 53.808C171.812 53.312 171.86 52.824 171.956 52.344C172.052 51.864 172.212 51.44 172.436 51.072C172.676 50.704 172.988 50.408 173.372 50.184C173.756 49.944 174.236 49.824 174.812 49.824C175.388 49.824 175.868 49.944 176.252 50.184C176.652 50.408 176.964 50.704 177.188 51.072C177.428 51.44 177.596 51.864 177.692 52.344C177.788 52.824 177.836 53.312 177.836 53.808C177.836 54.304 177.788 54.792 177.692 55.272C177.596 55.736 177.428 56.16 177.188 56.544C176.964 56.912 176.652 57.208 176.252 57.432C175.868 57.656 175.388 57.768 174.812 57.768C174.236 57.768 173.756 57.656 173.372 57.432C172.988 57.208 172.676 56.912 172.436 56.544C172.212 56.16 172.052 55.736 171.956 55.272C171.86 54.792 171.812 54.304 171.812 53.808ZM168.404 53.808C168.404 54.8 168.556 55.696 168.86 56.496C169.164 57.296 169.596 57.984 170.156 58.56C170.716 59.12 171.388 59.552 172.172 59.856C172.956 60.16 173.836 60.312 174.812 60.312C175.788 60.312 176.668 60.16 177.452 59.856C178.252 59.552 178.932 59.12 179.492 58.56C180.052 57.984 180.484 57.296 180.788 56.496C181.092 55.696 181.244 54.8 181.244 53.808C181.244 52.816 181.092 51.92 180.788 51.12C180.484 50.304 180.052 49.616 179.492 49.056C178.932 48.48 178.252 48.04 177.452 47.736C176.668 47.416 175.788 47.256 174.812 47.256C173.836 47.256 172.956 47.416 172.172 47.736C171.388 48.04 170.716 48.48 170.156 49.056C169.596 49.616 169.164 50.304 168.86 51.12C168.556 51.92 168.404 52.816 168.404 53.808ZM197.644 60L201.556 47.592H198.052L195.772 55.992H195.724L193.612 47.592H190.3L188.236 56.016H188.188L185.908 47.592H182.308L186.244 60H189.772L191.884 51.672H191.932L194.14 60H197.644Z" fill="#5E3E25"/>
</g>
<defs>
<filter id="filter0_b" x="-4" y="-4" width="250" height="108" filterUnits="userSpaceOnUse" color-interpolation-filters="sRGB">
<feFlood flood-opacity="0" result="BackgroundImageFix"/>
<feGaussianBlur in="BackgroundImage" stdDeviation="2"/>
<feComposite in2="SourceAlpha" operator="in" result="effect1_backgroundBlur"/>
<feBlend mode="normal" in="SourceGraphic" in2="effect1_backgroundBlur" result="shape"/>
</filter>
</defs>
</svg>
