<svg width="30" height="30" viewBox="0 0 30 30" fill="none" xmlns="http://www.w3.org/2000/svg">
<path d="M6.49 2.78C6.49 2.16 6.49 1.58 6.49 1C6.49 0.42 6.88 0 7.42 0C7.94 0 8.33 0.42 8.34 0.98C8.34 1.57 8.34 2.15 8.34 2.76C10.2 2.76 12.03 2.76 13.89 2.76C13.89 2.18 13.89 1.6 13.89 1.03C13.89 0.42 14.27 -9.31323e-09 14.82 0.00999999C15.35 0.00999999 15.73 0.43 15.74 1.02C15.74 1.6 15.74 2.17 15.74 2.76C17.6 2.76 19.43 2.76 21.29 2.76C21.29 2.13 21.28 1.52 21.29 0.91C21.29 0.51 21.53 0.2 21.91 0.0599999C22.26 -0.0700001 22.67 0.0199999 22.89 0.34C23.02 0.53 23.11 0.77 23.12 1C23.15 1.58 23.13 2.17 23.13 2.79C23.26 2.79 23.36 2.79 23.46 2.79C24.67 2.79 25.89 2.79 27.1 2.79C28.5 2.79 29.6 3.87 29.6 5.28C29.6 12.57 29.6 19.87 29.6 27.16C29.6 28.52 28.49 29.62 27.13 29.62C18.91 29.62 10.69 29.62 2.47 29.62C1.09 29.62 0 28.52 0 27.14C0 19.83 0 12.51 0 5.2C0 3.92 1.1 2.81 2.4 2.8C3.64 2.79 4.89 2.8 6.13 2.8C6.26 2.78 6.36 2.78 6.49 2.78ZM6.49 4.62C5.17 4.62 3.9 4.62 2.63 4.62C2.07 4.62 1.86 4.83 1.86 5.39C1.86 12.59 1.86 19.79 1.86 26.98C1.86 27.52 2.09 27.75 2.63 27.75C10.75 27.75 18.88 27.75 27 27.75C27.52 27.75 27.76 27.51 27.76 27C27.76 19.79 27.76 12.59 27.76 5.38C27.76 4.85 27.53 4.63 27 4.63C25.81 4.63 24.61 4.63 23.42 4.63C23.33 4.63 23.24 4.63 23.13 4.63C23.13 5.28 23.14 5.89 23.13 6.5C23.12 6.97 22.76 7.36 22.32 7.41C21.85 7.46 21.42 7.16 21.31 6.69C21.28 6.55 21.29 6.4 21.29 6.26C21.29 5.72 21.29 5.19 21.29 4.66C19.41 4.66 17.58 4.66 15.75 4.66C15.74 4.69 15.74 4.7 15.74 4.71C15.74 5.29 15.74 5.87 15.73 6.44C15.72 7 15.32 7.41 14.8 7.41C14.29 7.41 13.9 7 13.89 6.46C13.89 6.26 13.89 6.06 13.89 5.85C13.89 5.45 13.89 5.05 13.89 4.65C12.02 4.65 10.19 4.65 8.34 4.65C8.34 5.23 8.34 5.8 8.34 6.36C8.34 6.99 7.96 7.41 7.4 7.41C6.86 7.41 6.49 6.98 6.49 6.37C6.49 5.79 6.49 5.22 6.49 4.62Z" fill="#583A20"/>
<path d="M10.17 13.86C8.94 13.86 7.72999 13.86 6.50999 13.86C6.50999 12.95 6.50999 12.05 6.50999 11.12C7.71999 11.12 8.94 11.12 10.17 11.12C10.17 12.03 10.17 12.93 10.17 13.86Z" fill="#583A20"/>
<path d="M16.65 11.12C16.65 12.03 16.65 12.93 16.65 13.86C15.43 13.86 14.22 13.86 12.98 13.86C12.98 12.95 12.98 12.05 12.98 11.12C14.2 11.12 15.41 11.12 16.65 11.12Z" fill="#583A20"/>
<path d="M23.13 13.86C21.9 13.86 20.7 13.86 19.47 13.86C19.47 12.95 19.47 12.04 19.47 11.12C20.69 11.12 21.9 11.12 23.13 11.12C23.13 12.03 23.13 12.93 23.13 13.86Z" fill="#583A20"/>
<path d="M10.17 18.49C8.94 18.49 7.72999 18.49 6.50999 18.49C6.50999 17.58 6.50999 16.68 6.50999 15.75C7.71999 15.75 8.93 15.75 10.17 15.75C10.17 16.65 10.17 17.56 10.17 18.49Z" fill="#583A20"/>
<path d="M12.99 15.74C14.22 15.74 15.43 15.74 16.65 15.74C16.65 16.65 16.65 17.55 16.65 18.48C15.44 18.48 14.22 18.48 12.99 18.48C12.99 17.58 12.99 16.67 12.99 15.74Z" fill="#583A20"/>
<path d="M19.46 15.74C20.68 15.74 21.89 15.74 23.12 15.74C23.12 16.65 23.12 17.55 23.12 18.48C21.91 18.48 20.69 18.48 19.46 18.48C19.46 17.58 19.46 16.68 19.46 15.74Z" fill="#583A20"/>
<path d="M6.50999 23.1C6.50999 22.18 6.50999 21.28 6.50999 20.37C7.73999 20.37 8.94999 20.37 10.18 20.37C10.18 21.28 10.18 22.18 10.18 23.1C8.96999 23.1 7.74999 23.1 6.50999 23.1Z" fill="#583A20"/>
<path d="M16.65 23.11C15.42 23.11 14.21 23.11 12.99 23.11C12.99 22.2 12.99 21.3 12.99 20.37C14.2 20.37 15.41 20.37 16.65 20.37C16.65 21.28 16.65 22.18 16.65 23.11Z" fill="#583A20"/>
<path d="M23.13 20.37C23.13 21.29 23.13 22.19 23.13 23.11C21.91 23.11 20.7 23.11 19.47 23.11C19.47 22.21 19.47 21.3 19.47 20.37C20.68 20.37 21.89 20.37 23.13 20.37Z" fill="#583A20"/>
</svg>
