<svg width="65" height="65" viewBox="0 0 65 65" fill="none" xmlns="http://www.w3.org/2000/svg">
<path d="M65 32.5C65 41.1195 61.5759 49.386 55.481 55.481C49.386 61.5759 41.1195 65 32.5 65C23.8805 65 15.614 61.5759 9.51903 55.481C3.4241 49.386 0 41.1195 0 32.5C0 23.8805 3.4241 15.614 9.51903 9.51903C15.614 3.4241 23.8805 0 32.5 0C41.1195 0 49.386 3.4241 55.481 9.51903C61.5759 15.614 65 23.8805 65 32.5V32.5ZM27.5844 20.6903C27.2806 20.4741 26.9233 20.3456 26.5514 20.3189C26.1795 20.2923 25.8074 20.3685 25.476 20.5393C25.1445 20.7101 24.8665 20.9687 24.6723 21.287C24.4781 21.6053 24.3752 21.9709 24.375 22.3438V42.6562C24.3752 43.0291 24.4781 43.3947 24.6723 43.713C24.8665 44.0313 25.1445 44.2899 25.476 44.4607C25.8074 44.6315 26.1795 44.7077 26.5514 44.6811C26.9233 44.6544 27.2806 44.5259 27.5844 44.3097L41.8031 34.1534C42.0664 33.9655 42.2811 33.7175 42.4292 33.4299C42.5772 33.1423 42.6545 32.8235 42.6545 32.5C42.6545 32.1765 42.5772 31.8577 42.4292 31.5701C42.2811 31.2825 42.0664 31.0345 41.8031 30.8466L27.5844 20.6903V20.6903Z" fill="#DDA15E"/>
</svg>
